<svg xmlns="http://www.w3.org/2000/svg" xmlns:xlink="http://www.w3.org/1999/xlink" version="1.1" x="0px" y="0px" viewBox="0 0 48 60" enable-background="new 0 0 48 48" xml:space="preserve"><path d="M14.581,11.881c1.025-0.411,1.523-1.575,1.113-2.601l-0.631-1.576l-0.508,0.203c-1.025,0.41-1.523,1.574-1.113,2.601  l0.633,1.577L14.581,11.881z"/><path d="M12.195,14.457c0.896-0.645,1.102-1.895,0.459-2.791l-0.992-1.379l-0.443,0.317c-0.896,0.645-1.102,1.895-0.459,2.791  l0.99,1.38L12.195,14.457z"/><path d="M8.98,13.608l-0.355,0.415c-0.717,0.842-0.617,2.104,0.223,2.82l1.293,1.104l0.354-0.416  c0.719-0.841,0.619-2.104-0.223-2.819L8.98,13.608z"/><path d="M6.925,17.964c-0.494,0.987-0.096,2.188,0.891,2.685l1.52,0.762l0.244-0.488c0.496-0.987,0.096-2.188-0.891-2.686  l-1.517-0.761L6.925,17.964z"/><path d="M6.218,22.196c-0.244,1.076,0.43,2.148,1.508,2.394l1.656,0.376l0.121-0.532c0.244-1.077-0.432-2.148-1.508-2.394  l-1.656-0.376L6.218,22.196z"/><path d="M10.279,28.406l-0.01-0.547c-0.021-1.104-0.934-1.982-2.037-1.963l-1.697,0.031l0.01,0.547  c0.02,1.104,0.932,1.982,2.035,1.963L10.279,28.406z"/><path d="M10.333,31.969l1.641-0.438l-0.141-0.527c-0.283-1.067-1.379-1.702-2.447-1.418l-1.641,0.437l0.141,0.528  C8.168,31.619,9.263,32.252,10.333,31.969z"/><path d="M14.365,34.162l-0.262-0.479c-0.531-0.969-1.748-1.323-2.715-0.792l-1.49,0.815l0.264,0.479  c0.531,0.968,1.746,1.322,2.715,0.791L14.365,34.162z"/><path d="M16.949,35.742c-0.748-0.813-2.014-0.867-2.826-0.119l-1.25,1.148l0.369,0.402c0.748,0.813,2.014,0.865,2.826,0.119  l1.25-1.149L16.949,35.742z"/><path d="M17.431,37.619l-0.938,1.416l0.455,0.301c0.92,0.611,2.16,0.359,2.771-0.561l0.939-1.416l-0.455-0.302  C19.283,36.447,18.043,36.699,17.431,37.619z"/><path d="M17.811,13.002c-0.709-0.524-1.711-0.374-2.236,0.337l-0.26,0.352l1.092,0.808c0.711,0.524,1.713,0.375,2.238-0.336  l0.26-0.353L17.811,13.002z"/><path d="M16.855,15.296l-1.256-0.522c-0.814-0.34-1.752,0.046-2.092,0.862l-0.168,0.403l1.254,0.521  c0.816,0.34,1.752-0.046,2.092-0.861L16.855,15.296z"/><path d="M15.154,17.663l0.066-0.434l-1.344-0.207c-0.873-0.135-1.689,0.464-1.824,1.338l-0.066,0.433L13.329,19  C14.201,19.134,15.02,18.536,15.154,17.663z"/><path d="M11.292,21.354l0.039,0.437l1.352-0.12c0.881-0.078,1.531-0.855,1.453-1.735l-0.039-0.436l-1.354,0.12  C11.863,19.697,11.213,20.474,11.292,21.354z"/><path d="M11.268,24.443l0.141,0.413l1.287-0.44c0.836-0.286,1.281-1.195,0.994-2.031l-0.143-0.414l-1.285,0.44  C11.425,22.698,10.98,23.607,11.268,24.443z"/><path d="M12.22,27.815l1.143-0.735c0.742-0.479,0.957-1.469,0.479-2.211l-0.236-0.367l-1.143,0.734  c-0.742,0.479-0.957,1.469-0.479,2.213L12.22,27.815z"/><path d="M13.716,30.494l0.934-0.986c0.607-0.643,0.578-1.655-0.064-2.262l-0.316-0.302l-0.934,0.987  c-0.607,0.643-0.578,1.654,0.064,2.262L13.716,30.494z"/><path d="M15.431,32.521l0.379,0.217l0.67-1.184c0.436-0.77,0.166-1.745-0.604-2.182l-0.379-0.215l-0.67,1.183  C14.393,31.109,14.663,32.086,15.431,32.521z"/><path d="M17.961,34.295l0.42,0.117l0.367-1.308c0.238-0.851-0.256-1.733-1.107-1.974l-0.42-0.118l-0.369,1.31  C16.613,33.172,17.109,34.057,17.961,34.295z"/><path d="M21.277,35.426l0.043-1.357c0.029-0.884-0.664-1.621-1.547-1.65l-0.438-0.015l-0.043,1.358  c-0.029,0.883,0.664,1.622,1.547,1.65L21.277,35.426z"/><path d="M33.926,12.084l0.631-1.577c0.412-1.025-0.088-2.189-1.113-2.601l-0.506-0.203L32.305,9.28  c-0.41,1.024,0.088,2.188,1.113,2.601L33.926,12.084z"/><path d="M36.779,10.605l-0.443-0.317l-0.99,1.379c-0.645,0.896-0.439,2.146,0.459,2.791l0.443,0.318l0.99-1.38  C37.883,12.499,37.678,11.249,36.779,10.605z"/><path d="M39.02,13.608l-1.293,1.104c-0.84,0.717-0.939,1.979-0.223,2.819l0.354,0.416l1.291-1.104  c0.84-0.718,0.939-1.979,0.225-2.82L39.02,13.608z"/><path d="M38.42,20.921l0.244,0.488l1.518-0.762c0.988-0.496,1.387-1.696,0.891-2.685l-0.242-0.488l-1.52,0.761  C38.322,18.732,37.924,19.934,38.42,20.921z"/><path d="M41.66,21.664l-1.656,0.376c-1.078,0.244-1.752,1.315-1.508,2.394l0.121,0.532l1.656-0.376  c1.076-0.244,1.752-1.316,1.508-2.394L41.66,21.664z"/><path d="M37.73,27.859l-0.01,0.547l1.697,0.031c1.104,0.02,2.016-0.859,2.037-1.963l0.01-0.547l-1.697-0.031  C38.662,25.875,37.75,26.754,37.73,27.859z"/><path d="M36.166,31.004l-0.141,0.527l1.643,0.438c1.066,0.283,2.162-0.352,2.447-1.418l0.141-0.528l-1.643-0.437  C37.547,29.302,36.451,29.937,36.166,31.004z"/><path d="M33.896,33.684l-0.264,0.479l1.49,0.816c0.967,0.531,2.184,0.178,2.715-0.791l0.262-0.479l-1.488-0.816  C35.643,32.36,34.428,32.715,33.896,33.684z"/><path d="M31.051,35.742l-0.371,0.401l1.252,1.149c0.813,0.746,2.078,0.693,2.824-0.119l0.371-0.402l-1.25-1.148  C33.063,34.873,31.797,34.928,31.051,35.742z"/><path d="M27.795,37.058l-0.455,0.302l0.938,1.416c0.611,0.92,1.855,1.172,2.773,0.561l0.455-0.301l-0.939-1.416  C29.957,36.699,28.715,36.447,27.795,37.058z"/><path d="M30.188,13.002l-1.092,0.808l0.26,0.353c0.525,0.711,1.525,0.86,2.236,0.336l1.094-0.808l-0.26-0.352  C31.9,12.628,30.898,12.478,30.188,13.002z"/><path d="M32.398,14.773l-1.254,0.522l0.168,0.403c0.34,0.815,1.277,1.201,2.092,0.861l1.256-0.521l-0.17-0.403  C34.15,14.819,33.215,14.434,32.398,14.773z"/><path d="M34.121,17.022l-1.342,0.207l0.066,0.434c0.135,0.873,0.951,1.472,1.826,1.337l1.342-0.207l-0.066-0.433  C35.813,17.486,34.996,16.888,34.121,17.022z"/><path d="M35.256,19.619l-1.355-0.12l-0.037,0.436c-0.078,0.88,0.57,1.657,1.451,1.735l1.355,0.12l0.039-0.437  C36.787,20.474,36.137,19.697,35.256,19.619z"/><path d="M36.732,24.443c0.285-0.836-0.16-1.745-0.996-2.032l-1.285-0.44l-0.141,0.414c-0.287,0.836,0.158,1.745,0.994,2.031  l1.285,0.44L36.732,24.443z"/><path d="M36.016,27.449c0.477-0.744,0.264-1.733-0.48-2.213l-1.143-0.734l-0.236,0.367c-0.479,0.742-0.264,1.732,0.48,2.211  l1.141,0.735L36.016,27.449z"/><path d="M34.6,30.193c0.643-0.605,0.67-1.619,0.064-2.262l-0.936-0.987l-0.318,0.302c-0.643,0.605-0.67,1.619-0.063,2.262  l0.932,0.986L34.6,30.193z"/><path d="M32.502,29.158l-0.381,0.217c-0.768,0.436-1.039,1.412-0.604,2.181l0.67,1.183l0.381-0.216  c0.77-0.437,1.039-1.412,0.604-2.181L32.502,29.158z"/><path d="M30.359,31.132c-0.852,0.239-1.348,1.122-1.109,1.974l0.369,1.309l0.42-0.119c0.852-0.237,1.348-1.121,1.107-1.973  l-0.367-1.309L30.359,31.132z"/><path d="M28.707,33.762l-0.045-1.358l-0.436,0.015c-0.885,0.029-1.576,0.768-1.549,1.65l0.045,1.357l0.436-0.014  C28.043,35.384,28.734,34.645,28.707,33.762z"/><path d="M25.248,37.197c0.104-0.019,0.203-0.044,0.309-0.056c7.801-0.858,13.449-7.903,12.592-15.705  c-0.551-5.002-3.746-9.385-8.34-11.438c-0.254-0.115-0.547,0-0.66,0.252s0,0.548,0.252,0.66c4.271,1.908,7.242,5.983,7.754,10.635  c0.797,7.254-4.455,13.804-11.707,14.602c-0.504,0.056-0.989,0.179-1.446,0.359c-0.459-0.181-0.943-0.304-1.447-0.359  c-4.65-0.512-8.727-3.481-10.635-7.754c-1.443-3.228-1.543-6.822-0.281-10.125c1.264-3.302,3.734-5.915,6.963-7.356  c0.252-0.112,0.365-0.408,0.252-0.66C18.74,10,18.445,9.886,18.193,10c-3.471,1.551-6.131,4.36-7.488,7.912  c-1.357,3.552-1.25,7.42,0.303,10.891c2.053,4.594,6.436,7.789,11.438,8.34c0.104,0.012,0.203,0.037,0.308,0.055  c-0.83,0.604-1.496,1.428-1.9,2.41c-0.104,0.256,0.018,0.549,0.273,0.653c0.063,0.024,0.127,0.036,0.189,0.036  c0.197,0,0.383-0.116,0.463-0.309c0.434-1.057,1.234-1.887,2.225-2.38c0.987,0.493,1.792,1.323,2.225,2.38  c0.08,0.192,0.266,0.309,0.463,0.309c0.063,0,0.127-0.012,0.189-0.037c0.256-0.104,0.377-0.396,0.27-0.652  C26.744,38.623,26.078,37.8,25.248,37.197z"/><text x="0" y="63" fill="#000000" font-size="5px" font-weight="bold" font-family="'Helvetica Neue', Helvetica, Arial-Unicode, Arial, Sans-serif">Created by Kieu Thi Kim Cuong</text><text x="0" y="68" fill="#000000" font-size="5px" font-weight="bold" font-family="'Helvetica Neue', Helvetica, Arial-Unicode, Arial, Sans-serif">from the Noun Project</text></svg>